<svg width="16" height="17" viewBox="0 0 16 17" fill="none" xmlns="http://www.w3.org/2000/svg">
<path d="M14 8.37503C14 8.50764 13.9474 8.63482 13.8536 8.72859C13.7598 8.82236 13.6326 8.87503 13.5 8.87503H8.00003C7.86743 8.87503 7.74025 8.82236 7.64648 8.72859C7.55271 8.63482 7.50003 8.50764 7.50003 8.37503C7.50003 8.24243 7.55271 8.11525 7.64648 8.02148C7.74025 7.92771 7.86743 7.87503 8.00003 7.87503H13.5C13.6326 7.87503 13.7598 7.92771 13.8536 8.02148C13.9474 8.11525 14 8.24243 14 8.37503ZM8.00003 4.87503H13.5C13.6326 4.87503 13.7598 4.82236 13.8536 4.72859C13.9474 4.63482 14 4.50764 14 4.37503C14 4.24243 13.9474 4.11525 13.8536 4.02148C13.7598 3.92771 13.6326 3.87503 13.5 3.87503H8.00003C7.86743 3.87503 7.74025 3.92771 7.64648 4.02148C7.55271 4.11525 7.50003 4.24243 7.50003 4.37503C7.50003 4.50764 7.55271 4.63482 7.64648 4.72859C7.74025 4.82236 7.86743 4.87503 8.00003 4.87503ZM13.5 11.875H8.00003C7.86743 11.875 7.74025 11.9277 7.64648 12.0215C7.55271 12.1152 7.50003 12.2424 7.50003 12.375C7.50003 12.5076 7.55271 12.6348 7.64648 12.7286C7.74025 12.8224 7.86743 12.875 8.00003 12.875H13.5C13.6326 12.875 13.7598 12.8224 13.8536 12.7286C13.9474 12.6348 14 12.5076 14 12.375C14 12.2424 13.9474 12.1152 13.8536 12.0215C13.7598 11.9277 13.6326 11.875 13.5 11.875ZM5.14628 3.02128L3.50003 4.66816L2.85378 4.02128C2.75996 3.92746 2.63272 3.87476 2.50003 3.87476C2.36735 3.87476 2.2401 3.92746 2.14628 4.02128C2.05246 4.1151 1.99976 4.24235 1.99976 4.37503C1.99976 4.50772 2.05246 4.63496 2.14628 4.72878L3.14628 5.72878C3.19272 5.77527 3.24786 5.81215 3.30856 5.83731C3.36926 5.86248 3.43433 5.87543 3.50003 5.87543C3.56574 5.87543 3.63081 5.86248 3.6915 5.83731C3.7522 5.81215 3.80735 5.77527 3.85378 5.72878L5.85378 3.72878C5.9476 3.63496 6.00031 3.50772 6.00031 3.37503C6.00031 3.24235 5.9476 3.1151 5.85378 3.02128C5.75996 2.92746 5.63272 2.87476 5.50003 2.87476C5.36735 2.87476 5.2401 2.92746 5.14628 3.02128ZM5.14628 7.02128L3.50003 8.66816L2.85378 8.02128C2.75996 7.92746 2.63272 7.87476 2.50003 7.87476C2.36735 7.87476 2.2401 7.92746 2.14628 8.02128C2.05246 8.1151 1.99976 8.24235 1.99976 8.37503C1.99976 8.44073 2.0127 8.50579 2.03784 8.56648C2.06298 8.62718 2.09983 8.68233 2.14628 8.72878L3.14628 9.72878C3.19272 9.77527 3.24786 9.81215 3.30856 9.83731C3.36926 9.86248 3.43433 9.87543 3.50003 9.87543C3.56574 9.87543 3.63081 9.86248 3.6915 9.83731C3.7522 9.81215 3.80735 9.77527 3.85378 9.72878L5.85378 7.72878C5.9476 7.63496 6.00031 7.50772 6.00031 7.37503C6.00031 7.24235 5.9476 7.1151 5.85378 7.02128C5.75996 6.92746 5.63272 6.87476 5.50003 6.87476C5.36735 6.87476 5.2401 6.92746 5.14628 7.02128ZM5.14628 11.0213L3.50003 12.6682L2.85378 12.0213C2.80733 11.9748 2.75218 11.938 2.69148 11.9128C2.63079 11.8877 2.56573 11.8748 2.50003 11.8748C2.43434 11.8748 2.36928 11.8877 2.30859 11.9128C2.24789 11.938 2.19274 11.9748 2.14628 12.0213C2.09983 12.0677 2.06298 12.1229 2.03784 12.1836C2.0127 12.2443 1.99976 12.3093 1.99976 12.375C1.99976 12.4407 2.0127 12.5058 2.03784 12.5665C2.06298 12.6272 2.09983 12.6823 2.14628 12.7288L3.14628 13.7288C3.19272 13.7753 3.24786 13.8122 3.30856 13.8373C3.36926 13.8625 3.43433 13.8754 3.50003 13.8754C3.56574 13.8754 3.63081 13.8625 3.6915 13.8373C3.7522 13.8122 3.80735 13.7753 3.85378 13.7288L5.85378 11.7288C5.9476 11.635 6.00031 11.5077 6.00031 11.375C6.00031 11.2424 5.9476 11.1151 5.85378 11.0213C5.75996 10.9275 5.63272 10.8748 5.50003 10.8748C5.36735 10.8748 5.2401 10.9275 5.14628 11.0213Z" fill="white"/>
</svg>
