<svg width="16" height="17" viewBox="0 0 16 17" fill="none" xmlns="http://www.w3.org/2000/svg">
<path d="M13.8669 5.5725C14.5607 7.02363 14.6925 8.68033 14.2366 10.2229C13.7808 11.7654 12.7698 13.0844 11.3986 13.9253C10.0275 14.7662 8.39345 15.0694 6.81189 14.7764C5.23034 14.4834 3.81338 13.615 2.83448 12.3387C1.85559 11.0624 1.38416 9.46872 1.51117 7.86527C1.63819 6.26183 2.35465 4.76227 3.52228 3.65601C4.6899 2.54974 6.22592 1.9152 7.83389 1.87485C9.44185 1.8345 11.0078 2.3912 12.2294 3.4375L13.6463 2.02C13.7401 1.92618 13.8674 1.87348 14 1.87348C14.1327 1.87348 14.26 1.92618 14.3538 2.02C14.4476 2.11382 14.5003 2.24107 14.5003 2.37375C14.5003 2.50644 14.4476 2.63368 14.3538 2.7275L8.35378 8.7275C8.25996 8.82133 8.13271 8.87403 8.00003 8.87403C7.86735 8.87403 7.7401 8.82133 7.64628 8.7275C7.55246 8.63368 7.49975 8.50644 7.49975 8.37375C7.49975 8.24107 7.55246 8.11382 7.64628 8.02L9.37878 6.2875C8.90925 5.97698 8.34866 5.834 7.78776 5.88172C7.22686 5.92944 6.69849 6.16507 6.28817 6.55046C5.87784 6.93584 5.6096 7.44843 5.52685 8.00524C5.44411 8.56205 5.55171 9.1305 5.83223 9.61855C6.11275 10.1066 6.54978 10.4857 7.07256 10.6944C7.59535 10.9032 8.17329 10.9294 8.71283 10.7689C9.25237 10.6083 9.72192 10.2703 10.0455 9.80966C10.369 9.34901 10.5277 8.79265 10.4957 8.23063C10.492 8.16497 10.5012 8.09922 10.523 8.03715C10.5447 7.97507 10.5784 7.91788 10.6222 7.86884C10.666 7.8198 10.7191 7.77987 10.7783 7.75133C10.8376 7.72279 10.9019 7.7062 10.9675 7.7025C11.1001 7.69505 11.2303 7.74057 11.3293 7.82906C11.3784 7.87288 11.4183 7.92593 11.4468 7.98518C11.4754 8.04443 11.492 8.10872 11.4957 8.17438C11.5412 8.96987 11.314 9.7571 10.8516 10.406C10.3891 11.0548 9.71914 11.5265 8.95232 11.743C8.1855 11.9594 7.36777 11.9078 6.63428 11.5966C5.90078 11.2853 5.29544 10.7331 4.91829 10.0313C4.54115 9.32939 4.41478 8.51983 4.56007 7.73639C4.70536 6.95296 5.11362 6.24255 5.71737 5.72258C6.32111 5.20262 7.08421 4.90421 7.88052 4.8767C8.67684 4.84918 9.45871 5.0942 10.0969 5.57125L11.5188 4.14938C10.4768 3.28425 9.15189 2.83461 7.79857 2.8868C6.44524 2.939 5.15892 3.48936 4.18665 4.43217C3.21438 5.37499 2.62472 6.64378 2.53093 7.99485C2.43714 9.34593 2.84583 10.684 3.67851 11.7521C4.51118 12.8203 5.70912 13.5431 7.04225 13.7817C8.37538 14.0204 9.7497 13.7582 10.9012 13.0453C12.0528 12.3325 12.9003 11.2193 13.2812 9.91959C13.662 8.6199 13.5492 7.22534 12.9644 6.00375C12.9072 5.88408 12.8999 5.74658 12.9441 5.62152C12.9883 5.49645 13.0804 5.39407 13.2 5.33688C13.3197 5.27969 13.4572 5.27239 13.5823 5.31658C13.7073 5.36077 13.8097 5.45283 13.8669 5.5725Z" fill="white"/>
</svg>
