<svg width="16" height="17" viewBox="0 0 16 17" fill="none" xmlns="http://www.w3.org/2000/svg">
<path d="M5.50004 2.37504V1.87504C5.50004 1.74243 5.55272 1.61526 5.64649 1.52149C5.74026 1.42772 5.86743 1.37504 6.00004 1.37504C6.13265 1.37504 6.25983 1.42772 6.35359 1.52149C6.44736 1.61526 6.50004 1.74243 6.50004 1.87504V2.37504C6.50004 2.50765 6.44736 2.63483 6.35359 2.72859C6.25983 2.82236 6.13265 2.87504 6.00004 2.87504C5.86743 2.87504 5.74026 2.82236 5.64649 2.72859C5.55272 2.63483 5.50004 2.50765 5.50004 2.37504ZM1.00004 7.37504H1.50004C1.63265 7.37504 1.75983 7.32236 1.85359 7.22859C1.94736 7.13483 2.00004 7.00765 2.00004 6.87504C2.00004 6.74243 1.94736 6.61526 1.85359 6.52149C1.75983 6.42772 1.63265 6.37504 1.50004 6.37504H1.00004C0.867433 6.37504 0.740256 6.42772 0.646488 6.52149C0.55272 6.61526 0.500041 6.74243 0.500041 6.87504C0.500041 7.00765 0.55272 7.13483 0.646488 7.22859C0.740256 7.32236 0.867433 7.37504 1.00004 7.37504ZM7.77629 3.32254C7.83505 3.35197 7.89903 3.36952 7.96458 3.3742C8.03013 3.37888 8.09596 3.37059 8.1583 3.34981C8.22064 3.32903 8.27828 3.29617 8.32791 3.25309C8.37754 3.21002 8.41819 3.15759 8.44754 3.09879L8.94754 2.09879C9.00688 1.98019 9.01668 1.84287 8.97478 1.71705C8.93288 1.59122 8.84271 1.4872 8.7241 1.42785C8.6055 1.36851 8.46818 1.35871 8.34236 1.40062C8.21653 1.44252 8.11251 1.53269 8.05317 1.65129L7.55317 2.65129C7.52372 2.71001 7.50613 2.77396 7.50141 2.83948C7.49668 2.905 7.50492 2.97081 7.52564 3.03315C7.54636 3.09549 7.57916 3.15313 7.62217 3.20279C7.66518 3.25244 7.71755 3.29314 7.77629 3.32254ZM1.77629 8.42817L0.776291 8.92817C0.65769 8.98751 0.567519 9.09153 0.525617 9.21736C0.483714 9.34318 0.493511 9.4805 0.552854 9.5991C0.612196 9.71771 0.716222 9.80788 0.842047 9.84978C0.967872 9.89168 1.10519 9.88188 1.22379 9.82254L2.22379 9.32254C2.28252 9.29316 2.33488 9.25249 2.37789 9.20288C2.4209 9.15326 2.45372 9.09565 2.47447 9.03335C2.49521 8.97105 2.50349 8.90527 2.49881 8.83977C2.49414 8.77427 2.47661 8.71033 2.44723 8.6516C2.41785 8.59288 2.37718 8.54051 2.32756 8.4975C2.27794 8.45449 2.22034 8.42168 2.15804 8.40093C2.09573 8.38018 2.02995 8.37191 1.96445 8.37658C1.89895 8.38125 1.83502 8.39878 1.77629 8.42817ZM13.7069 12.375C13.7998 12.4679 13.8735 12.5782 13.9237 12.6995C13.974 12.8208 13.9999 12.9509 13.9999 13.0822C13.9999 13.2136 13.974 13.3436 13.9237 13.465C13.8735 13.5863 13.7998 13.6966 13.7069 13.7894L12.9144 14.5819C12.8216 14.6748 12.7113 14.7485 12.59 14.7987C12.4686 14.849 12.3386 14.8749 12.2072 14.8749C12.0759 14.8749 11.9458 14.849 11.8245 14.7987C11.7032 14.7485 11.5929 14.6748 11.5 14.5819L8.29379 11.375L7.18754 14.2557C7.18754 14.2619 7.18254 14.2688 7.17942 14.2757C7.10289 14.4541 6.97558 14.606 6.81332 14.7126C6.65107 14.8192 6.46104 14.8757 6.26692 14.875H6.21754C6.01508 14.8665 5.82014 14.7959 5.65907 14.673C5.498 14.55 5.37856 14.3806 5.31692 14.1875L2.05004 4.18254C1.99396 4.00756 1.98717 3.82052 2.03042 3.64194C2.07367 3.46336 2.16529 3.30014 2.29522 3.17022C2.42514 3.04029 2.58836 2.94867 2.76694 2.90542C2.94552 2.86217 3.13256 2.86896 3.30754 2.92504L13.3125 6.19192C13.5038 6.25588 13.6712 6.37616 13.7928 6.53696C13.9145 6.69777 13.9847 6.89159 13.9942 7.093C14.0037 7.29441 13.9521 7.49399 13.8462 7.66556C13.7403 7.83713 13.585 7.97268 13.4007 8.05442L13.3807 8.06254L10.5 9.16817L13.7069 12.375ZM13 13.0819L9.79317 9.87504C9.67774 9.75982 9.59224 9.61812 9.54413 9.46229C9.49601 9.30646 9.48674 9.14122 9.51713 8.98099C9.54751 8.82075 9.61662 8.67038 9.71844 8.54297C9.82026 8.41557 9.9517 8.31501 10.1013 8.25004L10.1213 8.24129L12.9932 7.13879L3.00004 3.87504L6.26254 13.8663L7.36567 10.9913C7.36567 10.9844 7.37067 10.9775 7.37379 10.9707C7.43878 10.8212 7.53932 10.6899 7.66666 10.5881C7.794 10.4864 7.94428 10.4173 8.10442 10.3869C8.16626 10.3755 8.22902 10.3696 8.29192 10.3694C8.55687 10.3697 8.81088 10.4751 8.99817 10.6625L12.2069 13.875L13 13.0819Z" fill="white"/>
</svg>
