<svg width="16" height="17" viewBox="0 0 16 17" fill="none" xmlns="http://www.w3.org/2000/svg">
<path d="M12.9412 4.9169C12.2931 4.26731 11.5228 3.75244 10.6747 3.402C9.82668 3.05155 8.91762 2.87245 8 2.87503H7.975C4.12937 2.88815 1 6.06253 1 9.94565V11.375C1 11.6402 1.10536 11.8946 1.29289 12.0821C1.48043 12.2697 1.73478 12.375 2 12.375H14C14.2652 12.375 14.5196 12.2697 14.7071 12.0821C14.8946 11.8946 15 11.6402 15 11.375V9.87503C15.0026 8.95339 14.8219 8.04044 14.4684 7.18926C14.115 6.33807 13.5959 5.56565 12.9412 4.9169ZM14 11.375H7.48187L10.9044 6.66878C10.9824 6.56153 11.0147 6.42766 10.9941 6.29662C10.9735 6.16558 10.9016 6.0481 10.7944 5.97003C10.6871 5.89195 10.5533 5.85968 10.4222 5.88031C10.2912 5.90094 10.1737 5.97278 10.0956 6.08003L6.245 11.375H2V9.94565C2 9.75315 2.00937 9.56315 2.02688 9.37503H3.5C3.63261 9.37503 3.75979 9.32235 3.85355 9.22858C3.94732 9.13481 4 9.00764 4 8.87503C4 8.74242 3.94732 8.61524 3.85355 8.52147C3.75979 8.42771 3.63261 8.37503 3.5 8.37503H2.20438C2.84938 5.94628 4.95438 4.11003 7.5 3.89628V5.37503C7.5 5.50764 7.55268 5.63481 7.64645 5.72858C7.74021 5.82235 7.86739 5.87503 8 5.87503C8.13261 5.87503 8.25979 5.82235 8.35355 5.72858C8.44732 5.63481 8.5 5.50764 8.5 5.37503V3.89565C9.74041 4.00004 10.9178 4.48709 11.8694 5.2895C12.8211 6.09192 13.5001 7.17008 13.8125 8.37503H12.5C12.3674 8.37503 12.2402 8.42771 12.1464 8.52147C12.0527 8.61524 12 8.74242 12 8.87503C12 9.00764 12.0527 9.13481 12.1464 9.22858C12.2402 9.32235 12.3674 9.37503 12.5 9.37503H13.9794C13.9925 9.54065 14 9.7069 14 9.87503V11.375Z" fill="white"/>
</svg>
