<svg width="16" height="17" viewBox="0 0 16 17" fill="none" xmlns="http://www.w3.org/2000/svg">
<path d="M13.3538 5.02125L10.8538 2.52125C10.8073 2.47483 10.7521 2.43803 10.6914 2.41293C10.6307 2.38784 10.5657 2.37495 10.5 2.375H5.5C5.23478 2.375 4.98043 2.48036 4.79289 2.66789C4.60536 2.85543 4.5 3.10978 4.5 3.375V4.375H3.5C3.23478 4.375 2.98043 4.48036 2.79289 4.66789C2.60536 4.85543 2.5 5.10978 2.5 5.375V14.375C2.5 14.6402 2.60536 14.8946 2.79289 15.0821C2.98043 15.2696 3.23478 15.375 3.5 15.375H10.5C10.7652 15.375 11.0196 15.2696 11.2071 15.0821C11.3946 14.8946 11.5 14.6402 11.5 14.375V13.375H12.5C12.7652 13.375 13.0196 13.2696 13.2071 13.0821C13.3946 12.8946 13.5 12.6402 13.5 12.375V5.375C13.5001 5.30932 13.4872 5.24427 13.4621 5.18358C13.437 5.12288 13.4002 5.06772 13.3538 5.02125ZM10.5 14.375H3.5V5.375H8.29313L10.5 7.58187V12.865C10.5 12.8687 10.5 12.8719 10.5 12.875C10.5 12.8781 10.5 12.8813 10.5 12.885V14.375ZM12.5 12.375H11.5V7.375C11.5001 7.30932 11.4872 7.24427 11.4621 7.18358C11.437 7.12288 11.4002 7.06772 11.3538 7.02125L8.85375 4.52125C8.80728 4.47483 8.75212 4.43803 8.69143 4.41293C8.63073 4.38784 8.56568 4.37495 8.5 4.375H5.5V3.375H10.2931L12.5 5.58188V12.375ZM9 10.375C9 10.5076 8.94732 10.6348 8.85355 10.7286C8.75979 10.8223 8.63261 10.875 8.5 10.875H5.5C5.36739 10.875 5.24021 10.8223 5.14645 10.7286C5.05268 10.6348 5 10.5076 5 10.375C5 10.2424 5.05268 10.1152 5.14645 10.0214C5.24021 9.92768 5.36739 9.875 5.5 9.875H8.5C8.63261 9.875 8.75979 9.92768 8.85355 10.0214C8.94732 10.1152 9 10.2424 9 10.375ZM9 12.375C9 12.5076 8.94732 12.6348 8.85355 12.7286C8.75979 12.8223 8.63261 12.875 8.5 12.875H5.5C5.36739 12.875 5.24021 12.8223 5.14645 12.7286C5.05268 12.6348 5 12.5076 5 12.375C5 12.2424 5.05268 12.1152 5.14645 12.0214C5.24021 11.9277 5.36739 11.875 5.5 11.875H8.5C8.63261 11.875 8.75979 11.9277 8.85355 12.0214C8.94732 12.1152 9 12.2424 9 12.375Z" fill="white"/>
</svg>
