<svg width="16" height="17" viewBox="0 0 16 17" fill="none" xmlns="http://www.w3.org/2000/svg">
<path d="M2.99999 4.375C2.99999 4.24239 3.05266 4.11521 3.14643 4.02145C3.2402 3.92768 3.36738 3.875 3.49999 3.875H4.49999V2.875C4.49999 2.74239 4.55266 2.61521 4.64643 2.52145C4.7402 2.42768 4.86738 2.375 4.99999 2.375C5.13259 2.375 5.25977 2.42768 5.35354 2.52145C5.44731 2.61521 5.49999 2.74239 5.49999 2.875V3.875H6.49999C6.63259 3.875 6.75977 3.92768 6.85354 4.02145C6.94731 4.11521 6.99999 4.24239 6.99999 4.375C6.99999 4.50761 6.94731 4.63479 6.85354 4.72855C6.75977 4.82232 6.63259 4.875 6.49999 4.875H5.49999V5.875C5.49999 6.00761 5.44731 6.13479 5.35354 6.22855C5.25977 6.32232 5.13259 6.375 4.99999 6.375C4.86738 6.375 4.7402 6.32232 4.64643 6.22855C4.55266 6.13479 4.49999 6.00761 4.49999 5.875V4.875H3.49999C3.36738 4.875 3.2402 4.82232 3.14643 4.72855C3.05266 4.63479 2.99999 4.50761 2.99999 4.375ZM11.5 12.375H11V11.875C11 11.7424 10.9473 11.6152 10.8535 11.5214C10.7598 11.4277 10.6326 11.375 10.5 11.375C10.3674 11.375 10.2402 11.4277 10.1464 11.5214C10.0527 11.6152 9.99999 11.7424 9.99999 11.875V12.375H9.49999C9.36738 12.375 9.2402 12.4277 9.14643 12.5214C9.05266 12.6152 8.99999 12.7424 8.99999 12.875C8.99999 13.0076 9.05266 13.1348 9.14643 13.2286C9.2402 13.3223 9.36738 13.375 9.49999 13.375H9.99999V13.875C9.99999 14.0076 10.0527 14.1348 10.1464 14.2286C10.2402 14.3223 10.3674 14.375 10.5 14.375C10.6326 14.375 10.7598 14.3223 10.8535 14.2286C10.9473 14.1348 11 14.0076 11 13.875V13.375H11.5C11.6326 13.375 11.7598 13.3223 11.8535 13.2286C11.9473 13.1348 12 13.0076 12 12.875C12 12.7424 11.9473 12.6152 11.8535 12.5214C11.7598 12.4277 11.6326 12.375 11.5 12.375ZM15 9.375H14V8.375C14 8.24239 13.9473 8.11521 13.8535 8.02145C13.7598 7.92768 13.6326 7.875 13.5 7.875C13.3674 7.875 13.2402 7.92768 13.1464 8.02145C13.0527 8.11521 13 8.24239 13 8.375V9.375H12C11.8674 9.375 11.7402 9.42768 11.6464 9.52145C11.5527 9.61521 11.5 9.74239 11.5 9.875C11.5 10.0076 11.5527 10.1348 11.6464 10.2286C11.7402 10.3223 11.8674 10.375 12 10.375H13V11.375C13 11.5076 13.0527 11.6348 13.1464 11.7286C13.2402 11.8223 13.3674 11.875 13.5 11.875C13.6326 11.875 13.7598 11.8223 13.8535 11.7286C13.9473 11.6348 14 11.5076 14 11.375V10.375H15C15.1326 10.375 15.2598 10.3223 15.3535 10.2286C15.4473 10.1348 15.5 10.0076 15.5 9.875C15.5 9.74239 15.4473 9.61521 15.3535 9.52145C15.2598 9.42768 15.1326 9.375 15 9.375ZM13.7069 5.375L4.99999 14.0819C4.81247 14.2693 4.55821 14.3745 4.29311 14.3745C4.02801 14.3745 3.77375 14.2693 3.58624 14.0819L2.29249 12.7894C2.1996 12.6965 2.12592 12.5863 2.07565 12.4649C2.02539 12.3436 1.99951 12.2135 1.99951 12.0822C1.99951 11.9508 2.02539 11.8208 2.07565 11.6995C2.12592 11.5781 2.1996 11.4679 2.29249 11.375L11 2.66812C11.0928 2.57524 11.2031 2.50156 11.3244 2.45129C11.4458 2.40102 11.5758 2.37515 11.7072 2.37515C11.8385 2.37515 11.9686 2.40102 12.0899 2.45129C12.2113 2.50156 12.3215 2.57524 12.4144 2.66812L13.7069 3.96062C13.7997 4.05349 13.8734 4.16374 13.9237 4.28508C13.974 4.40642 13.9998 4.53647 13.9998 4.66781C13.9998 4.79915 13.974 4.92921 13.9237 5.05055C13.8734 5.17189 13.7997 5.28214 13.7069 5.375ZM10.2925 7.375L8.99999 6.08187L2.99999 12.0819L4.29249 13.375L10.2925 7.375ZM13 4.66813L11.7069 3.375L9.70686 5.375L11 6.66813L13 4.66813Z" fill="white"/>
</svg>
