<svg width="16" height="17" viewBox="0 0 16 17" fill="none" xmlns="http://www.w3.org/2000/svg">
<path d="M14.5 13.375C14.5 13.5076 14.4473 13.6348 14.3536 13.7286C14.2598 13.8223 14.1326 13.875 14 13.875H2C1.86739 13.875 1.74021 13.8223 1.64645 13.7286C1.55268 13.6348 1.5 13.5076 1.5 13.375V3.375C1.5 3.24239 1.55268 3.11521 1.64645 3.02145C1.74021 2.92768 1.86739 2.875 2 2.875C2.13261 2.875 2.25979 2.92768 2.35355 3.02145C2.44732 3.11521 2.5 3.24239 2.5 3.375V9.27312L5.67063 6.5C5.7569 6.42447 5.86652 6.3809 5.9811 6.37657C6.09569 6.37225 6.20828 6.40744 6.3 6.47625L9.97563 9.23312L13.6706 6C13.7191 5.95204 13.7768 5.9145 13.8403 5.88967C13.9038 5.86485 13.9717 5.85327 14.0398 5.85565C14.1079 5.85803 14.1749 5.87431 14.2365 5.9035C14.2981 5.93269 14.3531 5.97417 14.398 6.02538C14.443 6.0766 14.4771 6.13648 14.4981 6.20133C14.5191 6.26619 14.5266 6.33465 14.5201 6.40252C14.5137 6.47038 14.4935 6.53622 14.4607 6.59597C14.4279 6.65573 14.3832 6.70814 14.3294 6.75L10.3294 10.25C10.2431 10.3255 10.1335 10.3691 10.0189 10.3734C9.90431 10.3778 9.79173 10.3426 9.7 10.2738L6.02437 7.51813L2.5 10.6019V12.875H14C14.1326 12.875 14.2598 12.9277 14.3536 13.0214C14.4473 13.1152 14.5 13.2424 14.5 13.375Z" fill="white"/>
</svg>
