<svg width="16" height="17" viewBox="0 0 16 17" fill="none" xmlns="http://www.w3.org/2000/svg">
<path d="M12.3487 8.94125L9.12498 7.75L7.93748 4.52375C7.86716 4.33271 7.73992 4.16783 7.57295 4.05137C7.40598 3.9349 7.2073 3.87246 7.00373 3.87246C6.80015 3.87246 6.60147 3.9349 6.4345 4.05137C6.26753 4.16783 6.1403 4.33271 6.06998 4.52375L4.87498 7.75L1.64873 8.9375C1.45768 9.00782 1.29281 9.13505 1.17634 9.30202C1.05988 9.469 0.997437 9.66767 0.997437 9.87125C0.997437 10.0748 1.05988 10.2735 1.17634 10.4405C1.29281 10.6074 1.45768 10.7347 1.64873 10.805L4.87498 12L6.06248 15.2262C6.1328 15.4173 6.26003 15.5822 6.427 15.6986C6.59397 15.8151 6.79265 15.8775 6.99623 15.8775C7.1998 15.8775 7.39848 15.8151 7.56545 15.6986C7.73242 15.5822 7.85965 15.4173 7.92998 15.2262L9.12498 12L12.3512 10.8125C12.5423 10.7422 12.7071 10.6149 12.8236 10.448C12.9401 10.281 13.0025 10.0823 13.0025 9.87875C13.0025 9.67517 12.9401 9.4765 12.8236 9.30952C12.7071 9.14255 12.5423 9.01532 12.3512 8.945L12.3487 8.94125ZM8.56248 11.1388C8.49461 11.1638 8.43297 11.2032 8.38183 11.2543C8.33068 11.3055 8.29124 11.3671 8.26623 11.435L6.99998 14.8656L5.73623 11.4375C5.71125 11.3689 5.67157 11.3066 5.61996 11.255C5.56835 11.2034 5.50606 11.1637 5.43748 11.1388L2.00935 9.875L5.43748 8.61125C5.50606 8.58628 5.56835 8.54659 5.61996 8.49498C5.67157 8.44337 5.71125 8.38108 5.73623 8.3125L6.99998 4.88438L8.26373 8.3125C8.28874 8.38037 8.32818 8.442 8.37933 8.49315C8.43047 8.5443 8.49211 8.58374 8.55998 8.60875L11.9906 9.875L8.56248 11.1388ZM8.99998 3.375C8.99998 3.24239 9.05266 3.11521 9.14642 3.02145C9.24019 2.92768 9.36737 2.875 9.49998 2.875H10.5V1.875C10.5 1.74239 10.5527 1.61521 10.6464 1.52145C10.7402 1.42768 10.8674 1.375 11 1.375C11.1326 1.375 11.2598 1.42768 11.3535 1.52145C11.4473 1.61521 11.5 1.74239 11.5 1.875V2.875H12.5C12.6326 2.875 12.7598 2.92768 12.8535 3.02145C12.9473 3.11521 13 3.24239 13 3.375C13 3.50761 12.9473 3.63479 12.8535 3.72855C12.7598 3.82232 12.6326 3.875 12.5 3.875H11.5V4.875C11.5 5.00761 11.4473 5.13479 11.3535 5.22855C11.2598 5.32232 11.1326 5.375 11 5.375C10.8674 5.375 10.7402 5.32232 10.6464 5.22855C10.5527 5.13479 10.5 5.00761 10.5 4.875V3.875H9.49998C9.36737 3.875 9.24019 3.82232 9.14642 3.72855C9.05266 3.63479 8.99998 3.50761 8.99998 3.375ZM15.5 6.375C15.5 6.50761 15.4473 6.63479 15.3535 6.72855C15.2598 6.82232 15.1326 6.875 15 6.875H14.5V7.375C14.5 7.50761 14.4473 7.63479 14.3535 7.72855C14.2598 7.82232 14.1326 7.875 14 7.875C13.8674 7.875 13.7402 7.82232 13.6464 7.72855C13.5527 7.63479 13.5 7.50761 13.5 7.375V6.875H13C12.8674 6.875 12.7402 6.82232 12.6464 6.72855C12.5527 6.63479 12.5 6.50761 12.5 6.375C12.5 6.24239 12.5527 6.11521 12.6464 6.02145C12.7402 5.92768 12.8674 5.875 13 5.875H13.5V5.375C13.5 5.24239 13.5527 5.11521 13.6464 5.02145C13.7402 4.92768 13.8674 4.875 14 4.875C14.1326 4.875 14.2598 4.92768 14.3535 5.02145C14.4473 5.11521 14.5 5.24239 14.5 5.375V5.875H15C15.1326 5.875 15.2598 5.92768 15.3535 6.02145C15.4473 6.11521 15.5 6.24239 15.5 6.375Z" fill="white"/>
</svg>
