<svg width="16" height="17" viewBox="0 0 16 17" fill="none" xmlns="http://www.w3.org/2000/svg">
<path d="M14 5.31876C13.8823 5.37971 13.7452 5.39144 13.6189 5.35135C13.4925 5.31127 13.3873 5.22267 13.3262 5.10501C12.849 4.1622 12.1266 3.36533 11.235 2.79814C11.1794 2.76309 11.1313 2.71745 11.0934 2.6638C11.0554 2.61016 11.0285 2.54957 11.0139 2.4855C10.9994 2.42143 10.9977 2.35512 11.0088 2.29038C11.0199 2.22563 11.0437 2.16371 11.0787 2.10814C11.1138 2.05257 11.1594 2.00446 11.2131 1.96653C11.2667 1.92861 11.3273 1.90162 11.3914 1.88711C11.4554 1.8726 11.5217 1.87085 11.5865 1.88197C11.6512 1.89308 11.7132 1.91684 11.7687 1.95189C12.8078 2.61722 13.6516 3.54662 14.2137 4.64501C14.2747 4.76271 14.2864 4.8998 14.2463 5.02614C14.2062 5.15247 14.1176 5.25773 14 5.31876ZM2.23185 5.37501C2.32345 5.37498 2.41328 5.34977 2.49153 5.30216C2.56979 5.25455 2.63346 5.18635 2.6756 5.10501C3.15285 4.1622 3.87523 3.36533 4.76685 2.79814C4.87907 2.72736 4.95857 2.6149 4.98787 2.4855C5.01718 2.3561 4.99388 2.22036 4.9231 2.10814C4.85232 1.99592 4.73986 1.91641 4.61046 1.88711C4.48106 1.85781 4.34532 1.88111 4.2331 1.95189C3.19397 2.61722 2.35021 3.54662 1.7881 4.64501C1.74862 4.72121 1.72942 4.80629 1.73235 4.89206C1.73527 4.97783 1.76022 5.0614 1.8048 5.13473C1.84938 5.20807 1.91208 5.26869 1.98687 5.31077C2.06166 5.35285 2.14603 5.37498 2.23185 5.37501ZM13.8631 11.8713C13.9517 12.0232 13.9986 12.1957 13.9992 12.3716C13.9998 12.5474 13.9541 12.7203 13.8665 12.8728C13.779 13.0253 13.6528 13.1521 13.5007 13.2402C13.3485 13.3284 13.1758 13.3749 13 13.375H10.45C10.3352 13.9402 10.0286 14.4483 9.5821 14.8132C9.13559 15.1782 8.57665 15.3775 7.99997 15.3775C7.42329 15.3775 6.86435 15.1782 6.41784 14.8132C5.97134 14.4483 5.66473 13.9402 5.54997 13.375H2.99997C2.82423 13.3747 2.65169 13.328 2.49973 13.2398C2.34776 13.1515 2.22173 13.0248 2.13435 12.8723C2.04696 12.7198 2.00129 12.547 2.00195 12.3713C2.00261 12.1955 2.04957 12.0231 2.1381 11.8713C2.70122 10.8994 2.99997 9.51751 2.99997 7.87501C2.99997 6.54893 3.52676 5.27716 4.46444 4.33948C5.40212 3.4018 6.67389 2.87501 7.99997 2.87501C9.32605 2.87501 10.5978 3.4018 11.5355 4.33948C12.4732 5.27716 13 6.54893 13 7.87501C13 9.51689 13.2987 10.8988 13.8631 11.8713ZM9.41372 13.375H6.58622C6.68981 13.6671 6.88135 13.92 7.13451 14.0989C7.38767 14.2777 7.69002 14.3737 7.99997 14.3737C8.30993 14.3737 8.61227 14.2777 8.86543 14.0989C9.11859 13.92 9.31013 13.6671 9.41372 13.375ZM13 12.375C12.335 11.2331 12 9.71939 12 7.87501C12 6.81415 11.5785 5.79673 10.8284 5.04659C10.0783 4.29644 9.06084 3.87501 7.99997 3.87501C6.93911 3.87501 5.92169 4.29644 5.17154 5.04659C4.4214 5.79673 3.99997 6.81415 3.99997 7.87501C3.99997 9.72001 3.66372 11.2338 2.99997 12.375H13Z" fill="white"/>
</svg>
